<?xml version="1.0" encoding="iso-8859-1"?>
<!-- Generator: Adobe Illustrator 16.0.0, SVG Export Plug-In . SVG Version: 6.00 Build 0)  -->
<!DOCTYPE svg PUBLIC "-//W3C//DTD SVG 1.1//EN" "http://www.w3.org/Graphics/SVG/1.1/DTD/svg11.dtd">
<svg version="1.1" id="Layer_1" xmlns="http://www.w3.org/2000/svg" xmlns:xlink="http://www.w3.org/1999/xlink" x="0px" y="0px"
	 width="34.999px" height="35px" viewBox="0 0 34.999 35" style="enable-background:new 0 0 34.999 35;" xml:space="preserve">
<path style="fill:#35363A;" d="M30.624,0H4.375C1.96,0,0,1.96,0,4.375v26.25C0,33.04,1.96,35,4.375,35h26.25
	c2.415,0,4.375-1.96,4.375-4.375V4.375C34.999,1.96,33.039,0,30.624,0 M17.5,13.125c4.029,0,4.375,4.375,4.375,4.375
	s0.129,4.375-4.375,4.375c-4.502,0-4.375-4.375-4.375-4.375S13.47,13.125,17.5,13.125 M30.968,28.406
	c0,1.208-1.384,2.562-2.594,2.562H6.5c-1.209,0-2.531-1.323-2.531-2.531V17.5c0-1.209,1.384-2.5,2.594-2.5h2.499
	c-0.184,0.703-0.311,1.74-0.311,2.5c0,4.832,3.918,8.75,8.75,8.75s8.75-3.918,8.75-8.75c0-0.76-0.129-1.766-0.311-2.469h2.499
	c1.209,0,2.531,1.229,2.531,2.438V28.406z M30.624,8.75c0,1.208-0.978,2.188-2.187,2.188h-2.188c-1.208,0-2.187-0.98-2.187-2.188
	V6.562c0-1.208,0.979-2.188,2.187-2.188h2.188c1.209,0,2.187,0.98,2.187,2.188V8.75z"/>
</svg>
