<?xml version="1.0" encoding="iso-8859-1"?>
<!-- Generator: Adobe Illustrator 16.0.0, SVG Export Plug-In . SVG Version: 6.00 Build 0)  -->
<!DOCTYPE svg PUBLIC "-//W3C//DTD SVG 1.1//EN" "http://www.w3.org/Graphics/SVG/1.1/DTD/svg11.dtd">
<svg version="1.1" id="Layer_1" xmlns="http://www.w3.org/2000/svg" xmlns:xlink="http://www.w3.org/1999/xlink" x="0px" y="0px"
	 width="239.107px" height="69.18px" viewBox="0 0 239.107 69.18" style="enable-background:new 0 0 239.107 69.18;"
	 xml:space="preserve">
<g>
	<g>
		<path style="fill:#34437D;" d="M69.272,35.547h4.849c2.868,0,4.691,1.494,4.691,4v0.009c0,2.701-2.052,4.083-4.835,4.083h-1.571
			v3.239h-3.134V35.547z M73.914,41.202c1.114,0,1.79-0.599,1.79-1.498v-0.023c0-0.984-0.676-1.502-1.843-1.502h-1.455v3.023H73.914
			z"/>
		<path style="fill:#34437D;" d="M90.154,45.913c-0.985,0.736-2.059,1.134-3.362,1.134c-2.313,0-4.067-1.194-4.067-3.254v-0.021
			c0-1.381,0.766-2.481,2.284-3.168c-0.502-0.72-0.724-1.448-0.724-2.173v-0.033c0-1.646,1.321-3.072,3.564-3.072
			c2.046,0,3.366,1.261,3.366,2.902v0.068c0,1.385-0.9,2.308-2.246,2.906l1.268,1.248c0.382-0.526,0.736-1.16,1.093-1.807
			l2.062,1.022c-0.461,0.863-0.961,1.678-1.492,2.405l1.521,1.503l-2.135,1.522L90.154,45.913z M88.52,44.266l-1.859-1.874
			c-0.532,0.323-0.793,0.757-0.793,1.215v0.032c0,0.637,0.531,1.13,1.322,1.13C87.65,44.769,88.112,44.54,88.52,44.266z
			 M88.707,38.431v-0.053c0-0.545-0.331-0.912-0.857-0.912c-0.529,0-0.926,0.436-0.926,1.027v0.015c0,0.449,0.2,0.808,0.597,1.302
			C88.311,39.45,88.707,39.021,88.707,38.431z"/>
		<path style="fill:#34437D;" d="M97.882,35.547h4.882c2.838,0,4.687,1.494,4.687,4v0.009c0,2.701-2.047,4.083-4.856,4.083h-1.545
			v3.239h-3.167V35.547z M102.527,41.202c1.099,0,1.81-0.599,1.81-1.498v-0.023c0-0.984-0.711-1.502-1.838-1.502h-1.45v3.023
			H102.527z"/>
	</g>
	<g>
		<path style="fill:#235080;" d="M116.686,42.872h-2.771v4.006h-1.263V35.547h4.234c2.557,0,4.222,1.36,4.222,3.608
			C121.108,41.609,119.064,42.872,116.686,42.872z M116.763,36.722h-2.848v5.01h2.779c1.907,0,3.105-1.021,3.105-2.508
			C119.8,37.569,118.604,36.722,116.763,36.722z"/>
		<path style="fill:#235080;" d="M134.442,46.878l-3.268-4.405h-3.235v4.405h-1.286V35.547h4.885c2.503,0,4.091,1.36,4.091,3.386
			c0,1.882-1.317,2.991-3.092,3.324l3.488,4.621H134.442z M131.434,36.722h-3.494v4.612h3.462c1.722,0,2.91-0.86,2.91-2.354
			C134.312,37.569,133.253,36.722,131.434,36.722z"/>
		<path style="fill:#235080;" d="M146.851,47.047c-3.438,0-5.745-2.679-5.745-5.826c0-3.127,2.315-5.865,5.789-5.865
			c3.446,0,5.756,2.69,5.756,5.847C152.65,44.33,150.281,47.047,146.851,47.047z M146.851,36.521c-2.575,0-4.428,2.103-4.428,4.681
			c0,2.569,1.856,4.657,4.472,4.657c2.588,0,4.434-2.017,4.434-4.639C151.328,38.624,149.424,36.521,146.851,36.521z"/>
		<path style="fill:#235080;" d="M162.426,46.878h-1.31v-4.486l-4.697-6.845h1.574l3.816,5.655l3.845-5.655h1.462l-4.69,6.845
			V46.878z"/>
		<path style="fill:#235080;" d="M180.577,36.716h-6.878v3.86h6.152v1.155h-6.152v3.979h6.987v1.168h-8.295V35.547h8.186V36.716z"/>
		<path style="fill:#235080;" d="M191.658,47.047c-3.29,0-5.674-2.543-5.674-5.826c0-3.229,2.379-5.865,5.732-5.865
			c2.05,0,3.256,0.725,4.418,1.816l-0.911,0.922c-0.924-0.922-1.985-1.572-3.55-1.572c-2.506,0-4.368,2.041-4.368,4.681
			c0,2.641,1.908,4.657,4.368,4.657c1.569,0,2.566-0.562,3.682-1.618l0.841,0.826C195.015,46.254,193.708,47.047,191.658,47.047z"/>
		<path style="fill:#235080;" d="M205.92,46.878h-1.268V36.722h-3.819v-1.175h8.906v1.175h-3.819V46.878z"/>
		<path style="fill:#235080;" d="M219.712,47.047c-3.433,0-5.746-2.679-5.746-5.826c0-3.127,2.32-5.865,5.798-5.865
			c3.44,0,5.754,2.69,5.754,5.847C225.518,44.33,223.149,47.047,219.712,47.047z M219.712,36.521c-2.579,0-4.424,2.103-4.424,4.681
			c0,2.569,1.859,4.657,4.476,4.657c2.583,0,4.428-2.017,4.428-4.639C224.191,38.624,222.292,36.521,219.712,36.521z"/>
		<path style="fill:#235080;" d="M235.413,40.604c2.512,0.534,3.694,1.458,3.694,3.239c0,1.919-1.642,3.19-3.887,3.19
			c-1.788,0-3.246-0.601-4.625-1.835l0.794-0.923c1.189,1.057,2.312,1.584,3.892,1.584c1.521,0,2.511-0.792,2.511-1.882
			c0-1.105-0.542-1.707-2.92-2.185c-2.622-0.591-3.811-1.425-3.811-3.3c0-1.812,1.576-3.101,3.7-3.101
			c1.65,0,2.834,0.457,4.011,1.384l-0.776,0.994c-1.05-0.863-2.075-1.249-3.243-1.249c-1.469,0-2.435,0.826-2.435,1.856
			C232.318,39.456,232.91,40.078,235.413,40.604z"/>
	</g>
</g>
<g>
	<path style="fill:#3D5097;" d="M25.444,0.857C23.138-0.481,19.938-0.3,16.418,1.74L0,11.212v40.433l10.164,5.959l0.027-40.466
		L26.607,7.66c3.523-2.032,6.714-2.221,9.029-0.881C32.236,4.809,28.846,2.831,25.444,0.857z"/>
	<path style="fill:#242E57;" d="M39.344,14.918c-0.01-3.996-1.427-6.81-3.704-8.136c-3.398-1.974-6.796-3.947-10.193-5.925
		c-2.313-1.343-5.504-1.152-9.032,0.88L0,11.214l10.197,5.921l16.412-9.477c0.796-0.459,1.574-0.819,2.331-1.096
		c0.13,0.756,0.213,1.56,0.216,2.429c0.014,4.866-2.066,10.376-5.249,14.872l15.33-7.046C39.3,16.177,39.348,15.541,39.344,14.918z"
		/>
	<path style="fill:#2C6099;" d="M45.282,11.999c-2.314-1.345-5.505-1.156-9.033,0.875l-16.414,9.479V63.26l10.17,5.92l0.027-40.905
		l16.413-9.478c3.519-2.034,6.717-2.218,9.028-0.875C52.076,15.946,48.678,13.973,45.282,11.999z"/>
	<path style="fill:#17395A;" d="M55.474,17.922c-3.397-1.976-6.796-3.949-10.191-5.923c-2.314-1.345-5.505-1.156-9.033,0.875
		l-16.414,9.479l10.197,5.922l16.413-9.478c0.796-0.461,1.573-0.819,2.328-1.095c0.132,0.754,0.214,1.558,0.218,2.429
		c0.021,8.047-5.655,17.877-12.65,21.917l10.184,5.92c6.999-4.039,12.678-13.869,12.653-21.911
		C59.169,22.061,57.752,19.246,55.474,17.922z"/>
	<path style="fill:#33437D;" d="M25.444,0.857C23.138-0.481,19.938-0.3,16.418,1.74L0,11.212l10.191,5.926L26.607,7.66
		c3.523-2.032,6.714-2.221,9.029-0.881C32.236,4.809,28.846,2.831,25.444,0.857z"/>
	<path style="fill:#245080;" d="M45.282,11.999c-2.314-1.345-5.505-1.156-9.033,0.875l-16.414,9.479l10.197,5.922l16.413-9.478
		c3.519-2.034,6.717-2.218,9.028-0.875C52.076,15.946,48.678,13.973,45.282,11.999z"/>
</g>
</svg>
