<?xml version="1.0" encoding="utf-8"?>
<!-- Generator: Adobe Illustrator 16.0.0, SVG Export Plug-In . SVG Version: 6.00 Build 0)  -->
<!DOCTYPE svg PUBLIC "-//W3C//DTD SVG 1.1//EN" "http://www.w3.org/Graphics/SVG/1.1/DTD/svg11.dtd">
<svg version="1.1" id="Layer_1" xmlns="http://www.w3.org/2000/svg" xmlns:xlink="http://www.w3.org/1999/xlink" x="0px" y="0px"
	 width="41.578px" height="33.632px" viewBox="0 0 41.578 33.632" enable-background="new 0 0 41.578 33.632" xml:space="preserve">
<path fill="#35373A" d="M41.578,3.981c-1.529,0.675-3.174,1.131-4.898,1.337c1.76-1.051,3.113-2.714,3.75-4.696
	c-1.65,0.973-3.474,1.679-5.418,2.06C33.456,1.031,31.24,0,28.785,0c-4.711,0-8.53,3.801-8.53,8.491
	c0,0.667,0.076,1.313,0.221,1.935C13.387,10.073,7.102,6.691,2.895,1.555C2.161,2.808,1.741,4.268,1.741,5.823
	c0,2.946,1.506,5.545,3.794,7.067c-1.399-0.044-2.714-0.427-3.863-1.062c0,0.036,0,0.071,0,0.106c0,4.115,2.939,7.545,6.843,8.327
	c-0.716,0.193-1.469,0.298-2.248,0.298c-0.549,0-1.084-0.054-1.604-0.153c1.085,3.372,4.236,5.827,7.968,5.896
	c-2.919,2.277-6.598,3.634-10.595,3.634c-0.688,0-1.368-0.04-2.036-0.118c3.774,2.408,8.258,3.814,13.077,3.814
	c15.69,0,24.271-12.938,24.271-24.157c0-0.369-0.01-0.733-0.024-1.098c1.667-1.197,3.114-2.692,4.256-4.394L41.578,3.981
	L41.578,3.981z"/>
</svg>
